<svg width="310" height="96" viewBox="0 0 310 96" fill="none" xmlns="http://www.w3.org/2000/svg">
<path d="M0.5 15.6197C0.5 10.1698 4.86386 5.72348 10.3128 5.62144L299.763 0.201073C305.565 0.0924178 310.241 4.92921 309.936 10.7244L305.96 86.3429C305.677 91.7279 301.175 95.9186 295.783 95.8159L10.3097 90.3815C4.86203 90.2778 0.5 85.832 0.5 80.3834V15.6197Z" fill="#C4C4C4"/>
<path d="M0.5 15.6197C0.5 10.1698 4.86386 5.72348 10.3128 5.62144L299.763 0.201073C305.565 0.0924178 310.241 4.92921 309.936 10.7244L305.96 86.3429C305.677 91.7279 301.175 95.9186 295.783 95.8159L10.3097 90.3815C4.86203 90.2778 0.5 85.832 0.5 80.3834V15.6197Z" fill="url(#paint0_linear_1_807)"/>
<defs>
<linearGradient id="paint0_linear_1_807" x1="346.599" y1="-29.1777" x2="162.62" y2="114.882" gradientUnits="userSpaceOnUse">
<stop stop-color="#006379"/>
<stop offset="1" stop-color="#3E027B"/>
</linearGradient>
</defs>
</svg>
