<svg width="343" height="93" viewBox="0 0 343 93" fill="none" xmlns="http://www.w3.org/2000/svg">
<g clip-path="url(#clip0_1_815)">
<mask id="mask0_1_815" style="mask-type:alpha" maskUnits="userSpaceOnUse" x="0" y="0" width="343" height="374">
<path fill-rule="evenodd" clip-rule="evenodd" d="M9.09416 76.0405C3.99579 76.4982 0 80.7825 0 86V364C0 369.523 4.47716 374 10 374H333C338.523 374 343 369.523 343 364V86C343 80.4771 338.523 76 333 76H330.927C331.166 73.9273 331.215 71.4383 330.421 70.694C329.689 69.9429 328.773 69.4547 327.857 68.9665C326.941 68.4782 326.025 67.99 325.292 67.2389C322.728 64.6852 323.277 61.831 323.827 58.9768C323.949 58.5762 324.397 58.1756 324.844 57.775C325.068 57.5747 325.292 57.3744 325.475 57.1741C322.911 57.6248 320.346 59.8781 320.163 61.9812C319.98 63.3332 320.163 64.8354 320.346 66.1874C320.713 67.99 320.163 69.342 318.881 69.7927C317.232 70.2433 314.851 69.4922 313.752 67.99C312.287 66.1874 312.287 64.0843 312.836 62.1314C313.752 58.9768 314.668 55.6719 315.401 52.5173C316.316 47.56 313.569 43.504 310.088 39.7485C310.042 39.6973 309.996 39.6472 309.952 39.5982C309.474 39.0719 309.11 38.6713 308.44 38.3965C308.715 38.8471 309.035 39.3354 309.356 39.8236C309.676 40.3118 309.997 40.8 310.272 41.2507C311.554 43.2036 312.47 45.3066 311.92 47.7102C311.187 50.1137 308.989 51.7661 306.242 51.7661C302.944 51.7661 300.014 49.9635 299.647 47.7102C299.098 44.4053 299.83 41.1005 302.029 38.3965C304.227 35.6925 304.043 32.9885 303.677 30.1343C303.562 29.4717 303.301 28.7494 303.032 28.0051C302.874 27.5682 302.714 27.1237 302.578 26.6792C302.518 27.4178 302.497 28.1241 302.477 28.8087V28.81V28.8103C302.436 30.2137 302.398 31.526 302.029 32.8383C301.662 33.8899 300.563 35.0916 299.281 35.8427C294.335 38.6969 291.038 42.3022 290.488 47.1093C290.324 49.1244 291.04 51.1395 291.717 53.0471C291.797 53.2727 291.876 53.4967 291.954 53.719C292.354 54.786 292.864 55.8081 293.363 56.8099C293.778 57.6417 294.186 58.4594 294.518 59.2772C295.251 60.9296 294.885 61.6807 293.236 62.4318C291.221 63.3332 289.389 63.1829 288.29 61.9812C286.275 59.8781 285.726 57.4745 286.825 54.9208C288.473 51.6159 287.191 48.6115 284.81 45.7573V45.7576C284.81 46.3583 284.81 46.809 284.993 47.4097C284.993 47.6803 285.104 47.9509 285.21 48.2078C285.339 48.5213 285.46 48.8144 285.359 49.0622C285.326 49.28 285.299 49.5077 285.271 49.7399L285.271 49.741C285.146 50.7895 285.01 51.9298 284.26 52.6675C280.597 56.2728 280.23 60.0283 282.428 64.0843L282.533 64.3061C283.412 66.1745 284.232 67.9197 283.528 69.9429C283.492 70.0297 283.457 70.1221 283.42 70.2179C283.267 70.6195 283.091 71.0813 282.795 71.4451C281.513 73.398 279.864 73.9988 278.032 73.2477C276.017 72.4966 275.101 70.694 276.017 68.8913C276.179 68.3599 276.484 67.946 276.933 67.3378L276.99 67.2607C277.031 67.2051 277.073 67.1478 277.116 67.0887C274.002 68.1402 273.086 70.0931 273.086 72.3464C273.086 72.3898 273.086 72.4512 273.085 72.5298C273.08 73.0444 273.067 74.2937 273.173 76H257.56C258.367 71.6261 259.678 66.717 261.948 64.9772C264.524 63.0756 265.097 60.4609 264.238 57.8462C263.379 53.3299 261.089 49.5267 257.655 45.9613C254.792 42.8712 254.792 39.7811 256.51 36.2156C256.796 35.6213 257.082 34.9675 257.368 34.3137C257.655 33.6601 257.941 33.0066 258.227 32.4124L257.655 32.1747C257.225 32.7689 256.724 33.4225 256.224 34.0761C255.723 34.7299 255.222 35.3836 254.792 35.9779C251.644 41.445 250.499 47.1497 252.789 53.0922C253.934 56.1823 253.361 59.5101 249.926 61.4117C247.637 62.8379 244.488 64.0264 241.626 64.7395C236.187 65.928 231.894 62.8379 231.894 58.0839C231.894 57.5563 231.911 57.0142 231.929 56.4648C231.983 54.7866 232.039 53.04 231.608 51.4283C230.177 45.9612 225.883 41.6827 221.59 37.8795C219.3 35.7402 217.296 33.6009 217.01 30.7485C216.819 28.53 216.883 26.3115 216.946 24.0929C216.978 22.9837 217.01 21.8744 217.01 20.7651C216.724 21.0028 216.151 21.4782 215.865 22.1913C211.572 28.3715 212.144 34.5517 216.151 40.4942C218.441 44.0597 219.872 47.3874 219.586 51.1906C219.3 55.9446 215.293 60.2232 210.427 60.9363C205.847 61.6494 203.271 59.7478 203.557 55.9446C203.557 55.0656 203.87 54.1867 204.149 53.4039L204.149 53.4038L204.149 53.4035L204.149 53.4033C204.247 53.1278 204.341 52.8643 204.416 52.6168C205.561 49.0513 202.412 45.2481 197.833 44.7728C198.14 45.2203 198.531 45.6334 198.916 46.0399C199.961 47.1447 200.959 48.2005 200.122 49.7644C199.384 51.1953 198.222 52.6262 197.183 53.906L197.182 53.9067C197.014 54.1148 196.848 54.3189 196.688 54.5184L196.688 54.5185C196.401 54.7562 196.115 54.9939 196.115 55.2315C193.825 57.3708 193.253 59.9855 194.112 62.8379C194.398 64.5018 194.684 65.928 195.543 67.1165C196.118 67.9525 194.814 71.969 193.302 76H191.123C190.631 72.8597 190.11 70.0605 189.78 69.2357C189.114 66.0985 187.079 64.0996 184.864 61.9225L184.863 61.9221L184.863 61.9219C184.205 61.2757 183.532 60.6137 182.873 59.9016C179.708 56.7903 179.132 53.4396 181.146 49.6103C181.546 48.7795 181.807 47.8334 182.122 46.6918C182.26 46.189 182.409 45.6483 182.585 45.0629C182.154 45.3022 181.938 45.4818 181.794 45.6014C181.65 45.7211 181.578 45.7809 181.434 45.7809C177.118 50.0889 176.254 54.8756 178.557 60.141C179.708 63.013 179.995 65.6457 177.693 68.039C174.816 70.911 170.787 70.6717 169.348 67.0817C168.485 64.9277 168.485 62.7737 168.485 60.3803C168.485 58.7329 168.644 57.1298 168.804 55.5329L168.804 55.5326C169.014 53.4176 169.224 51.3135 169.06 49.1316C168.772 44.5842 164.168 38.1222 158.988 36.2075C159.42 36.9255 159.923 37.5239 160.427 38.1222C160.931 38.7206 161.434 39.3189 161.866 40.0369C162.128 40.472 162.442 40.9071 162.761 41.3488C163.495 42.365 164.255 43.4165 164.456 44.5842C166.182 50.8069 163.593 56.551 159.564 61.8163C157.549 63.9703 155.823 66.603 154.672 68.9963C153.711 70.7943 152.75 73.5929 152.291 76H138.698C139.038 75.511 139.426 75.0302 139.871 74.559C140.6 73.6495 141.431 72.783 142.256 71.9229C143.377 70.7554 144.486 69.6 145.31 68.3656C149.603 62.8868 145.882 57.6462 136.436 55.7406C136.722 56.217 137.008 56.6934 137.581 57.1698C139.298 59.7901 139.298 62.6486 137.867 65.2689C137.295 66.4599 135.864 67.4127 133.574 67.1745C132.142 66.9363 130.139 66.2217 129.566 65.5071C128.778 64.414 128.472 63.1202 128.206 61.9941L128.174 61.8609C128.161 61.8054 128.148 61.7503 128.135 61.6958C127.664 59.3466 129.321 57.3192 131.038 55.2169C131.41 54.7611 131.785 54.3018 132.142 53.8349C135.864 49.5472 137.009 45.2594 135.291 40.7335C133.001 34.3019 123.269 30.4906 115.254 29.5377C115.507 29.6643 115.743 29.7834 115.964 29.895L115.964 29.8951L115.964 29.8951C116.989 30.4137 117.696 30.771 118.403 30.967C123.841 32.8726 125.845 35.9693 126.99 39.3042C128.421 42.8774 122.696 46.6887 116.685 46.4505C110.96 46.2123 106.953 42.8774 108.098 39.3042C109.243 36.4458 110.674 33.8255 112.105 31.2052C114.395 26.9175 111.533 21.4387 104.663 19.0566C105.251 19.872 105.973 20.5758 106.737 21.3208L106.737 21.321L106.737 21.3211C107.09 21.6642 107.45 22.016 107.811 22.3915C109.815 24.2972 109.815 26.441 107.525 28.3467L103.518 31.6816C94.3579 39.3042 94.9305 48.5943 105.522 55.7406C110.674 58.1226 111.819 61.2193 111.246 64.7924C110.779 68.8748 108.406 72.4811 105.526 76H101.016C101.097 74.091 101.083 72.6995 101.076 72.0508C101.075 71.9274 101.074 71.8308 101.074 71.7627C101.074 68.2218 99.6371 65.153 94.7513 63.5005C94.8509 63.637 94.9468 63.7671 95.0387 63.892L95.0388 63.8921L95.0389 63.8921C95.7426 64.8478 96.2215 65.4982 96.4757 66.3333C97.9127 69.166 96.4757 71.9988 93.3143 73.1791C90.4403 74.3594 87.8537 73.4151 85.8419 70.3463C85.3778 69.7745 85.101 69.0489 84.8604 68.4178C84.803 68.2673 84.7476 68.1221 84.6923 67.9857C83.5863 64.8064 84.8743 62.064 86.2531 59.128L86.4167 58.7793C89.8655 52.4057 89.2907 46.5041 83.5427 40.8386C82.3665 39.6794 82.153 37.8875 81.9567 36.2397C81.9131 35.8743 81.8704 35.516 81.8183 35.1732C81.6603 34.7839 81.8497 34.3233 82.0523 33.8305C82.2183 33.4269 82.3931 33.0017 82.3931 32.5765C82.6804 31.6325 82.6804 30.9244 82.6804 29.9805V29.9798C78.9442 34.465 76.9325 39.1862 79.5191 44.3796C81.2435 48.3926 80.3813 52.1696 77.2198 55.4745C75.4954 57.3629 72.6215 57.599 69.4601 56.1826C66.8735 55.0023 66.2987 53.822 67.4483 51.2253C67.9697 49.9404 68.6094 48.6555 69.2601 47.3486L69.2602 47.3483C70.044 45.774 70.8437 44.1678 71.4718 42.4911C71.5931 42.1426 71.7175 41.7914 71.8428 41.4379L71.843 41.4374L71.8436 41.4356C72.9059 38.4378 74.0281 35.2711 73.7711 32.1044C72.9089 24.5504 67.7356 18.8849 59.9758 14.3998C57.964 13.2194 56.2396 11.331 55.6648 9.67852C55.0854 7.61619 55.0252 5.55386 54.9608 3.34823C54.9293 2.27183 54.8969 1.16131 54.8027 0C54.5901 0.698424 54.3382 1.39685 54.0906 2.08333L54.0905 2.08349L54.0905 2.08354C53.6687 3.25319 53.2593 4.38817 53.0782 5.42942C52.5034 9.91458 52.216 14.1637 55.6648 18.4128C59.1136 22.6619 60.2633 27.8553 59.4011 33.0486C58.8263 36.5895 54.2279 39.4223 49.0546 39.4223C44.7436 39.4223 41.2948 36.8256 40.1452 33.0486C39.283 29.2716 40.72 25.9668 42.7318 22.898C43.1629 22.1898 43.6658 21.4226 44.1687 20.6555L44.1688 20.6554L44.1689 20.6553C44.6718 19.8881 45.1747 19.121 45.6058 18.4128C44.5541 18.8447 43.9835 19.4742 43.2338 20.3012C43.164 20.3782 43.0926 20.4569 43.0192 20.5374C37.5586 26.4389 33.2476 32.8125 34.6846 40.6026C35.8342 45.5599 37.2712 50.7532 38.7082 55.7105C39.5704 58.7793 39.5704 62.0842 37.2712 64.9169C35.5468 67.2775 31.8106 68.4578 29.224 67.7496C27.2122 67.0415 26.35 64.9169 26.9248 62.0842C27.2122 59.9596 27.4996 57.599 27.2122 55.4745C26.9248 52.1696 22.9012 48.6287 18.8776 47.9205C19.165 48.2352 19.5162 48.55 19.8675 48.8647C20.57 49.4942 21.2726 50.1237 21.4642 50.7532C22.3264 55.2384 23.1886 59.7236 19.165 63.7366C18.0154 64.9169 16.5783 65.6841 15.1413 66.4513C13.7043 67.2185 12.2673 67.9857 11.1177 69.166C10.1104 70.1116 9.35064 72.3582 9.09416 76.0405ZM193.058 56.2246L193.058 56.224C191.958 53.866 190.965 51.7368 192.652 49.4592C192.901 49.9762 193.15 50.5448 193.399 51.1135L193.399 51.1136C193.648 51.6823 193.897 52.251 194.147 52.768C194.645 54.4224 194.396 55.87 193.649 57.5244C193.458 57.0822 193.257 56.6497 193.058 56.2246ZM271.907 39.494C269.331 34.74 267.9 29.7483 269.904 24.519C270.476 23.3305 271.048 22.142 271.335 20.7158C272.193 18.1011 272.48 15.4864 269.904 13.3471C269.617 13.1094 269.331 12.634 269.331 12.3963V12.1586C276.773 14.5356 279.349 19.0519 277.345 25.7075C276.773 27.6091 275.628 29.5106 274.197 31.1745C271.907 34.74 271.621 35.4531 271.907 39.494Z" fill="#131829"/>
</mask>
<g mask="url(#mask0_1_815)">
<path fill-rule="evenodd" clip-rule="evenodd" d="M9.07846 62.1803C3.98759 62.6454 0 66.9262 0 72.1384V484C0 489.523 4.47716 494 10 494H333C338.523 494 343 489.523 343 484V72.1384C343 66.6155 338.523 62.1384 333 62.1384H330.9C331.162 60.4151 331.244 58.2574 330.421 57.6284C329.688 57.0161 328.773 56.6182 327.857 56.2202C326.941 55.8222 326.025 55.4242 325.292 54.8119C322.728 52.7301 323.277 50.4035 323.827 48.0768C323.949 47.7502 324.397 47.4236 324.844 47.0971C325.068 46.9338 325.292 46.7705 325.475 46.6073C322.911 46.9746 320.346 48.8115 320.163 50.5259C319.98 51.628 320.163 52.8526 320.346 53.9547C320.713 55.4242 320.163 56.5263 318.881 56.8937C317.232 57.2611 314.851 56.6488 313.752 55.4242C312.287 53.9547 312.287 52.2403 312.836 50.6484C313.752 48.0768 314.668 45.3827 315.401 42.8111C316.316 38.77 313.569 35.4637 310.088 32.4022C310.042 32.3605 309.996 32.3197 309.952 32.2797C309.474 31.8507 309.11 31.5242 308.44 31.3001C308.715 31.6675 309.035 32.0655 309.356 32.4634C309.676 32.8614 309.997 33.2594 310.272 33.6268C311.554 35.2187 312.47 36.9331 311.92 38.8925C311.187 40.8518 308.989 42.1988 306.242 42.1988C302.944 42.1988 300.014 40.7293 299.647 38.8925C299.098 36.1984 299.83 33.5043 302.029 31.3001C304.227 29.0959 304.043 26.8916 303.677 24.5649C303.562 24.0248 303.301 23.436 303.032 22.8292C302.874 22.4731 302.714 22.1108 302.578 21.7484C302.518 22.3505 302.497 22.9262 302.477 23.4843V23.4854C302.436 24.6295 302.398 25.6994 302.029 26.7692C301.662 27.6264 300.563 28.606 299.281 29.2183C294.335 31.545 291.038 34.484 290.488 38.4026C290.324 40.0453 291.04 41.688 291.717 43.243C291.797 43.4269 291.876 43.6095 291.954 43.7908C292.354 44.6605 292.864 45.4937 293.363 46.3104C293.778 46.9884 294.186 47.655 294.518 48.3217C295.251 49.6687 294.885 50.281 293.236 50.8933C291.221 51.628 289.389 51.5056 288.29 50.5259C286.275 48.8115 285.726 46.8522 286.825 44.7704C288.473 42.0763 287.191 39.6272 284.81 37.3005V37.3008C284.81 37.7905 284.81 38.1578 284.993 38.6475C284.993 38.8681 285.104 39.0887 285.21 39.2981C285.339 39.5537 285.46 39.7926 285.359 39.9946C285.326 40.1721 285.299 40.3578 285.271 40.547L285.271 40.5479C285.146 41.4027 285.01 42.3322 284.26 42.9335C280.597 45.8725 280.23 48.934 282.428 52.2403L282.533 52.4212C283.412 53.9442 284.232 55.3669 283.528 57.0161C283.492 57.0864 283.457 57.1612 283.421 57.2387L283.421 57.2399L283.42 57.2404C283.267 57.5677 283.091 57.9441 282.795 58.2407C281.513 59.8327 279.864 60.3225 278.032 59.7102C276.017 59.0979 275.101 57.6284 276.017 56.1589C276.179 55.7257 276.484 55.3883 276.933 54.8925C276.992 54.8277 277.053 54.7602 277.116 54.6895C274.002 55.5467 273.086 57.1386 273.086 58.9755C273.086 59.0108 273.086 59.0609 273.085 59.125C273.079 59.5628 273.066 60.6531 273.188 62.1384H257.518C258.322 58.5274 259.639 54.411 261.948 52.9682C264.524 51.418 265.097 49.2866 264.238 47.1551C263.379 43.4736 261.089 40.3733 257.655 37.4668C254.792 34.9478 254.792 32.4288 256.51 29.5223C256.796 29.0378 257.082 28.5048 257.368 27.9719C257.655 27.4391 257.941 26.9063 258.227 26.422L257.655 26.2282C257.225 26.7126 256.724 27.2454 256.224 27.7782C255.723 28.3111 255.222 28.844 254.792 29.3285C251.644 33.7852 250.499 38.4356 252.789 43.2798C253.934 45.7988 253.361 48.5115 249.926 50.0617C247.637 51.2243 244.488 52.1931 241.626 52.7744C236.187 53.7433 231.894 51.2243 231.894 47.3489C231.894 46.9188 231.911 46.4769 231.929 46.0291C231.983 44.661 232.039 43.2372 231.608 41.9234C230.177 37.4667 225.883 33.9789 221.59 30.8786C219.3 29.1347 217.296 27.3908 217.01 25.0656C216.819 23.2571 216.883 21.4486 216.946 19.6401C216.978 18.7359 217.01 17.8316 217.01 16.9274C216.724 17.1211 216.151 17.5087 215.865 18.09C211.572 23.1279 212.144 28.1659 216.151 33.0101C218.441 35.9166 219.872 38.6294 219.586 41.7296C219.3 45.605 215.293 49.0928 210.427 49.6741C205.847 50.2554 203.271 48.7053 203.557 45.605C203.557 44.8885 203.87 44.1719 204.149 43.5337L204.149 43.5335C204.247 43.3089 204.341 43.094 204.416 42.8923C205.561 39.9857 202.412 36.8854 197.833 36.4979C198.14 36.8627 198.531 37.1995 198.916 37.5309C199.961 38.4315 200.959 39.2922 200.122 40.567C199.384 41.7335 198.222 42.8999 197.183 43.9431L197.181 43.9448L197.178 43.9485C197.01 44.1165 196.846 44.2813 196.688 44.4424L196.688 44.4425C196.401 44.6362 196.115 44.83 196.115 45.0237C193.825 46.7676 193.253 48.8991 194.112 51.2243C194.398 52.5806 194.684 53.7433 195.543 54.7121C196.129 55.4064 194.765 58.7913 193.217 62.1384H191.158C190.656 59.5042 190.118 57.1282 189.78 56.4397C189.114 53.8822 187.08 52.2528 184.864 50.478C184.206 49.9511 183.532 49.4114 182.873 48.8307C179.708 46.2944 179.132 43.563 181.146 40.4414C181.546 39.7641 181.807 38.9929 182.122 38.0623C182.26 37.6525 182.409 37.2117 182.585 36.7345C182.154 36.9296 181.938 37.0759 181.794 37.1734C181.65 37.271 181.578 37.3198 181.434 37.3198C177.118 40.8316 176.254 44.7336 178.557 49.0258C179.708 51.367 179.995 53.5131 177.693 55.4641C174.816 57.8054 170.787 57.6103 169.348 54.6837C168.485 52.9278 168.485 51.1719 168.485 49.2209C168.485 47.878 168.644 46.5712 168.804 45.2694L168.804 45.2692C169.014 43.5451 169.224 41.8298 169.06 40.0512C168.772 36.3443 164.168 31.0765 158.988 29.5157C159.42 30.101 159.923 30.5888 160.427 31.0765C160.931 31.5643 161.434 32.052 161.866 32.6373C162.128 32.992 162.442 33.3467 162.761 33.7068C163.495 34.5352 164.255 35.3923 164.456 36.3443C166.182 41.4169 163.593 46.0993 159.564 50.3915C157.549 52.1474 155.823 54.2935 154.672 56.2445C153.681 57.7564 152.689 60.1362 152.249 62.1384H138.544C138.92 61.6761 139.358 61.2224 139.871 60.7791C140.6 60.0377 141.431 59.3313 142.256 58.6302C143.377 57.6785 144.486 56.7366 145.31 55.7304C149.603 51.2642 145.882 46.9921 136.436 45.4387C136.722 45.8271 137.008 46.2154 137.581 46.6038C139.298 48.7398 139.298 51.07 137.867 53.206C137.295 54.1769 135.864 54.9536 133.574 54.7594C132.142 54.5653 130.139 53.9827 129.566 53.4002C128.778 52.5091 128.472 51.4544 128.206 50.5365L128.206 50.5353L128.205 50.5335L128.203 50.5271L128.182 50.4537C128.166 50.3997 128.151 50.3462 128.135 50.2932C127.664 48.3783 129.321 46.7256 131.038 45.0118C131.41 44.6403 131.785 44.2658 132.142 43.8852C135.864 40.3899 137.009 36.8947 135.291 33.2052C133.001 27.9623 123.269 24.8554 115.254 24.0786C115.507 24.1816 115.742 24.2786 115.963 24.3695L115.964 24.3699C116.989 24.7926 117.696 25.0839 118.403 25.2437C123.841 26.7972 125.845 29.3215 126.99 32.0401C128.421 34.9528 122.696 38.0598 116.685 37.8656C110.96 37.6714 106.953 34.9528 108.098 32.0401C109.243 29.7099 110.674 27.5739 112.105 25.4379C114.395 21.9426 111.533 17.4764 104.663 15.5346C105.251 16.1993 105.973 16.773 106.737 17.3804L106.737 17.3806C107.09 17.6602 107.45 17.947 107.811 18.2531C109.815 19.8066 109.815 21.5543 107.525 23.1077L103.518 25.8263C94.3579 32.0401 94.9305 39.6132 105.522 45.4387C110.674 47.3805 111.819 49.9049 111.246 52.8176C110.769 56.2168 108.303 59.2113 105.34 62.1384H101.007C101.098 60.4873 101.083 59.284 101.076 58.7345C101.075 58.6339 101.074 58.5551 101.074 58.4996C101.074 55.6131 99.6371 53.1115 94.7513 51.7645C94.8509 51.8757 94.9468 51.9817 95.0387 52.0836C95.7425 52.8627 96.2215 53.3929 96.4757 54.0737C97.9127 56.3829 96.4757 58.6921 93.3143 59.6542C90.4403 60.6164 87.8537 59.8467 85.8419 57.345C85.3778 56.8789 85.101 56.2874 84.8604 55.7729C84.803 55.6502 84.7476 55.5319 84.6923 55.4207C83.5863 52.829 84.8743 50.5934 86.2531 48.2001L86.4167 47.9158C89.8655 42.7201 89.2907 37.9093 83.5427 33.2909C82.3665 32.3459 82.153 30.8852 81.9567 29.542C81.9131 29.2441 81.8704 28.952 81.8183 28.6725C81.6603 28.3552 81.8497 27.9797 82.0523 27.578C82.2183 27.249 82.3931 26.9024 82.3931 26.5557C82.6804 25.7862 82.6804 25.209 82.6804 24.4395V24.439C78.9442 28.0952 76.9325 31.9439 79.5191 36.1774C81.2435 39.4488 80.3813 42.5277 77.2198 45.2218C75.4954 46.7612 72.6215 46.9536 69.4601 45.799C66.8735 44.8369 66.2987 43.8747 67.4483 41.758C67.9697 40.7105 68.6094 39.663 69.2601 38.5976L69.2602 38.5975C70.044 37.3142 70.8437 36.0048 71.4718 34.6379C71.5933 34.3532 71.718 34.0663 71.8436 33.7776C72.9059 31.3338 74.0281 28.7523 73.7711 26.1709C72.9089 20.013 67.7356 15.3946 59.9758 11.7384C57.964 10.7762 56.2396 9.23678 55.6648 7.88975C55.0854 6.20858 55.0252 4.5274 54.9608 2.72942C54.9293 1.85196 54.8969 0.946677 54.8027 0C54.5901 0.569342 54.3382 1.13868 54.0906 1.69829L54.0905 1.69842L54.0905 1.69846C53.6687 2.65194 53.2593 3.57715 53.0782 4.42596C52.5034 8.08219 52.216 11.546 55.6648 15.0098C59.1136 18.4736 60.2633 22.7071 59.4011 26.9406C58.8263 29.8271 54.2279 32.1363 49.0546 32.1363C44.7436 32.1363 41.2948 30.0195 40.1452 26.9406C39.283 23.8617 40.72 21.1676 42.7318 18.666C43.1629 18.0887 43.6658 17.4634 44.1687 16.838L44.1688 16.8379C44.6717 16.2125 45.1747 15.5871 45.6058 15.0098C44.5541 15.3619 43.9835 15.875 43.2338 16.5492L43.2323 16.5506C43.163 16.6129 43.0921 16.6766 43.0192 16.7417C37.5586 21.5525 33.2476 26.7482 34.6846 33.0985C35.8342 37.1396 37.2712 41.3731 38.7082 45.4142C39.5704 47.9158 39.5704 50.6099 37.2712 52.9191C35.5468 54.8434 31.8106 55.8056 29.224 55.2283C27.2122 54.651 26.35 52.9191 26.9248 50.6099C27.2122 48.878 27.4996 46.9536 27.2122 45.2218C26.9248 42.5277 22.9012 39.6412 18.8776 39.0639C19.165 39.3205 19.5162 39.577 19.8675 39.8336C20.57 40.3468 21.2726 40.8599 21.4642 41.3731C22.3264 45.0293 23.1886 48.6855 19.165 51.9569C18.0154 52.9191 16.5784 53.5445 15.1414 54.1699L15.1413 54.1699C13.7043 54.7953 12.2673 55.4207 11.1177 56.3829C10.0889 57.1701 9.31837 59.0636 9.07846 62.1803ZM193.058 45.8332L193.058 45.8328C191.958 43.9106 190.965 42.1749 192.652 40.3182C192.901 40.7397 193.15 41.2033 193.399 41.6669C193.648 42.1305 193.897 42.5941 194.147 43.0155C194.645 44.3641 194.396 45.5442 193.649 46.8928C193.458 46.5323 193.257 46.1797 193.058 45.8332ZM271.907 32.1948C269.331 28.3194 267.9 24.2503 269.904 19.9874C270.476 19.0186 271.048 18.0497 271.335 16.8871C272.193 14.7557 272.48 12.6242 269.904 10.8803C269.617 10.6865 269.331 10.299 269.331 10.1052V9.91147C276.773 11.8491 279.349 15.5307 277.345 20.9562C276.773 22.5064 275.628 24.0565 274.197 25.4129C271.907 28.3194 271.621 28.9007 271.907 32.1948Z" fill="#E93E3A"/>
<rect x="-105" y="-10" width="643" height="523" fill="#FF0000"/>
<rect x="-105" y="-10" width="643" height="523" fill="url(#paint0_linear_1_815)"/>
</g>
</g>
<defs>
<linearGradient id="paint0_linear_1_815" x1="231" y1="1.5" x2="228.774" y2="307.98" gradientUnits="userSpaceOnUse">
<stop stop-color="#FAFF00"/>
<stop offset="1" stop-color="#BE2929"/>
</linearGradient>
<clipPath id="clip0_1_815">
<rect width="343" height="93" fill="white"/>
</clipPath>
</defs>
</svg>
