<svg width="24" height="33" viewBox="0 0 24 33" fill="none" xmlns="http://www.w3.org/2000/svg">
<path d="M19.7157 22.0367C19.7259 21.9792 19.7339 9.54298 19.7339 9.54298C19.7339 9.05176 19.6969 8.56997 19.627 8.10026L22.3878 3.11668C22.5621 2.80205 22.5502 2.40311 22.3575 2.10179C22.1649 1.80041 21.8282 1.65462 21.5014 1.73056L16.9115 2.7975C15.507 1.47236 13.6855 0.670898 11.6975 0.670898C9.70947 0.670898 7.88804 1.47236 6.48354 2.7975L1.8936 1.73056C1.56661 1.65419 1.23013 1.80047 1.03753 2.10179C0.844829 2.40311 0.832946 2.80199 1.00729 3.11668L3.76804 8.10026C3.69819 8.56997 3.6612 9.05176 3.6612 9.54298C3.6612 9.54298 3.66689 21.9797 3.6771 22.0373C1.74269 22.6217 0.315979 24.5846 0.315979 26.9109L0.315979 31.2832C0.315979 31.7934 0.690677 32.2071 1.15286 32.2071C1.61503 32.2071 1.98973 31.7934 1.98973 31.2832L1.98973 27.7219C2.14746 27.7147 2.30562 27.7106 2.46273 27.7106C5.70903 27.7106 8.81853 29.2364 10.9939 31.8967C11.0989 32.0252 11.2359 32.1196 11.3869 32.1667C11.7328 32.2745 12.1543 32.1986 12.4011 31.8967C14.5764 29.2365 17.686 27.7106 20.9323 27.7106C21.0894 27.7106 21.2475 27.7147 21.4053 27.7219L21.4053 31.2832C21.4053 31.7934 21.78 32.2071 22.2421 32.2071C22.7043 32.2071 23.079 31.7934 23.079 31.2832L23.079 26.911C23.079 24.5838 21.6512 22.6202 19.7157 22.0367ZM18.0578 21.8593L14.2081 21.8593L14.2081 20.9226C15.7492 20.3617 17.0854 19.2992 18.0578 17.9108L18.0578 21.8593ZM5.33495 9.54298C5.33495 9.45262 5.33702 9.36287 5.34008 9.27332C6.16563 9.53226 7.01942 9.66358 7.89016 9.66358C10.0428 9.66358 12.1051 8.85152 13.7747 7.36144C15.0245 8.47986 16.485 9.21092 18.0593 9.50996C18.0589 9.52099 18.0578 9.53183 18.0578 9.54298L18.0578 12.683C17.9669 16.4694 15.1487 19.5187 11.6975 19.5187C8.1892 19.5187 5.33495 16.3676 5.33495 12.4944L5.33495 9.54298ZM10.8606 21.3185C11.1358 21.3501 11.4149 21.3665 11.6975 21.3665C11.9801 21.3665 12.2592 21.3501 12.5344 21.3185L12.5344 23.4429C12.5344 23.9524 12.159 24.3669 11.6975 24.3669C11.236 24.3669 10.8606 23.9524 10.8606 23.4429L10.8606 21.3185ZM9.18687 20.9226L9.18687 21.8593L5.33495 21.8593L5.33495 17.9075C6.30746 19.2975 7.64462 20.3612 9.18687 20.9226Z" fill="white"/>
</svg>
