<svg width="25" height="32" viewBox="0 0 25 32" fill="none" xmlns="http://www.w3.org/2000/svg">
<path fill-rule="evenodd" clip-rule="evenodd" d="M2.6115 4.17817H1.69223C1.18454 4.17817 0.772949 3.76658 0.772949 3.2589C0.772949 2.75121 1.18454 2.33962 1.69223 2.33962H2.6115V1.42034C2.6115 0.912659 3.02309 0.501068 3.53078 0.501068H7.20789C7.71557 0.501068 8.12716 0.912659 8.12716 1.42034V2.33962H11.8043V1.42034C11.8043 0.912659 12.2159 0.501068 12.7235 0.501068C13.2312 0.501068 13.6428 0.912659 13.6428 1.42034V2.33962H17.3199V1.42034C17.3199 0.912659 17.7315 0.501068 18.2392 0.501068H21.9163C22.424 0.501068 22.8356 0.912659 22.8356 1.42034V2.33962H23.7549C24.2626 2.33962 24.6741 2.75121 24.6741 3.2589C24.6741 3.76658 24.2626 4.17817 23.7549 4.17817H22.8356V21.7057C22.8356 22.0286 22.6661 22.3278 22.3893 22.494L13.6428 27.7419V30.9598C13.6428 31.4675 13.2312 31.879 12.7235 31.879C12.2159 31.879 11.8043 31.4675 11.8043 30.9598V27.7419L3.05778 22.494C2.78096 22.3278 2.6115 22.0286 2.6115 21.7057V4.17817ZM17.3199 4.17817H13.6428V6.01673H17.3199V4.17817ZM11.8043 4.17817H8.12716V6.01673H11.8043V4.17817ZM20.884 2.15388H19.4842V5.55332H20.884V2.15388ZM13.6429 20.7864C13.6429 18.7589 15.2924 17.1093 17.32 17.1093C17.8277 17.1093 18.2393 16.6978 18.2393 16.1901C18.2393 15.6824 17.8277 15.2708 17.32 15.2708C15.2924 15.2708 13.6429 13.6212 13.6429 11.5937C13.6429 11.086 13.2313 10.6744 12.7236 10.6744C12.2159 10.6744 11.8043 11.086 11.8043 11.5937C11.8043 13.6212 10.1548 15.2708 8.12721 15.2708C7.61952 15.2708 7.20793 15.6824 7.20793 16.1901C7.20793 16.6978 7.61952 17.1093 8.12721 17.1093C10.1548 17.1093 11.8043 18.7589 11.8043 20.7864C11.8043 21.2941 12.2159 21.7057 12.7236 21.7057C13.2313 21.7057 13.6429 21.2941 13.6429 20.7864ZM6.40792 2.15388H5.00813V5.55332H6.40792V2.15388Z" fill="#FFF5D6"/>
</svg>
