<svg width="27" height="24" viewBox="0 0 27 24" fill="none" xmlns="http://www.w3.org/2000/svg">
<path d="M26.1969 11.8935C25.9725 11.5039 25.4728 11.3705 25.0827 11.5953L24.4655 11.9518C24.4877 11.721 24.5027 11.4887 24.51 11.2552L26.021 9.74378C26.3396 9.42523 26.3396 8.90878 26.021 8.59023C25.7021 8.27167 25.186 8.27167 24.8675 8.59023L24.3631 9.09477C24.3242 8.86518 24.2781 8.63737 24.2249 8.41166L25.2947 6.5588C25.52 6.16915 25.3861 5.67033 24.996 5.44502C24.6064 5.22015 24.108 5.35312 23.8823 5.74366L23.5233 6.3653C23.4268 6.15407 23.3237 5.94598 23.2141 5.74137L23.7687 3.66943C23.8849 3.23383 23.6264 2.78713 23.1917 2.67054C22.757 2.5548 22.3094 2.81237 22.1928 3.24752L22.0075 3.94014C21.86 3.76093 21.7067 3.58609 21.5478 3.41618L21.5474 1.27494C21.5474 0.82431 21.1825 0.458956 20.7318 0.459404C20.2816 0.459404 19.9163 0.82431 19.9163 1.27454L19.9164 1.98658C19.6337 1.78466 19.3403 1.59514 19.0362 1.41946C18.6466 1.19414 18.1473 1.32801 17.922 1.71766C17.6967 2.1073 17.8301 2.60612 18.2202 2.83189C21.0966 4.49353 22.8837 7.58651 22.8855 10.9056C22.8855 10.9093 22.8855 10.9129 22.8856 10.9166C22.8832 14.5344 20.7605 17.8543 17.4754 19.3763C17.0671 19.5659 16.8891 20.0501 17.0786 20.4592C17.2169 20.757 17.5116 20.9319 17.8191 20.9319C17.934 20.9319 18.051 20.9072 18.1611 20.856C19.2417 20.3553 20.2151 19.6887 21.057 18.8953H23.1967C23.6473 18.8953 24.0122 18.5304 24.0122 18.0798C24.0122 17.6291 23.6473 17.2642 23.1967 17.2642H22.4777C22.612 17.0754 22.7402 16.8824 22.8624 16.6857L24.9356 16.131C25.3712 16.0144 25.6292 15.5668 25.5126 15.1321C25.396 14.6965 24.9489 14.4376 24.5137 14.5552L23.8198 14.741C23.9014 14.5233 23.9759 14.3025 24.0438 14.0794L25.8988 13.008C26.2888 12.7829 26.4222 12.2841 26.1969 11.8935Z" fill="#FFF5D6"/>
<path d="M13.573 20.2344C13.5693 20.2343 13.5657 20.2338 13.562 20.2338C13.5558 20.2338 13.5498 20.234 13.5436 20.234C9.24707 20.2255 5.62405 17.2959 4.55756 13.3295C4.55652 13.3254 4.55537 13.3213 4.55428 13.3173C4.34888 12.5492 4.23876 11.7425 4.23876 10.9106C4.23876 7.59049 6.02625 4.49481 8.90283 2.83188C9.29292 2.60657 9.42634 2.1078 9.20102 1.71765C8.97571 1.3275 8.47738 1.19454 8.08679 1.41945C7.78327 1.59489 7.4902 1.78416 7.20793 1.98573L7.20808 1.27454C7.20853 0.823905 6.84318 0.459 6.39254 0.459C5.94191 0.459 5.57701 0.823905 5.57701 1.27454L5.57661 3.41523C5.41755 3.58529 5.26423 3.76017 5.11662 3.93954L4.93153 3.24806C4.81489 2.81247 4.36779 2.554 3.93264 2.67108C3.4975 2.78772 3.23902 3.23437 3.35567 3.66997L3.91029 5.74017C3.80057 5.94498 3.69737 6.15332 3.60069 6.36479L3.24211 5.74376C3.01769 5.35366 2.51887 5.2198 2.12833 5.44511C1.73823 5.66998 1.60437 6.1688 1.82968 6.5589L2.89916 8.4111C2.84589 8.63701 2.79979 8.86502 2.76086 9.09481L2.25647 8.59027C1.93836 8.27171 1.42236 8.27171 1.10291 8.59027C0.784351 8.90838 0.784351 9.42482 1.10291 9.74383L2.61411 11.2554C2.62137 11.4893 2.63611 11.7213 2.65786 11.9513L2.04176 11.5954C1.65211 11.3701 1.15284 11.5039 0.927525 11.8936C0.70221 12.2837 0.835627 12.7825 1.22572 13.0078L3.07504 14.076C3.14284 14.3002 3.21747 14.5213 3.29901 14.7392L2.61117 14.555C2.17642 14.4392 1.72887 14.6968 1.61228 15.1319C1.49609 15.5671 1.75411 16.0142 2.18926 16.1308L4.25757 16.6847C4.38044 16.8819 4.50893 17.0753 4.64374 17.264H3.92727C3.47664 17.264 3.11173 17.6289 3.11173 18.0796C3.11173 18.5302 3.47664 18.8951 3.92727 18.8951H6.07125C7.17771 19.9338 8.49924 20.7456 9.96115 21.256C9.50833 21.5857 9.11943 21.9943 8.79679 22.482C8.54808 22.8575 8.65098 23.3634 9.02698 23.6121C9.16573 23.704 9.32165 23.7482 9.47627 23.7482C9.74047 23.7482 10.0002 23.6196 10.1566 23.3824C10.8326 22.3614 11.9464 21.8648 13.562 21.8648C13.5621 21.8648 13.5621 21.8648 13.5622 21.8648C13.5623 21.8648 13.5624 21.8648 13.5625 21.8648C15.1781 21.8648 16.2919 22.3614 16.9678 23.3824C17.1243 23.6196 17.384 23.7482 17.6487 23.7482C17.8028 23.7482 17.9593 23.704 18.0975 23.6126C18.4735 23.3639 18.5765 22.858 18.3277 22.4825C17.3423 20.9931 15.7426 20.2368 13.573 20.2344Z" fill="#FFF5D6"/>
<path fill-rule="evenodd" clip-rule="evenodd" d="M7.10466 14.176C6.86272 14.1832 6.63805 14.0737 6.48898 13.8913C7.66828 16.6789 10.4372 18.6139 13.6255 18.5866C13.3638 18.5736 13.1228 18.4324 12.9931 18.2018L10.6741 14.0705L7.10466 14.176ZM13.794 18.5901C18.0269 18.4619 21.3672 14.9166 21.2421 10.6835C21.1821 8.65614 20.332 6.83876 19.0036 5.50288C19.0095 5.6004 19.0032 5.69815 18.9707 5.79446L17.645 9.67379L20.6053 12.4649C20.8313 12.6781 20.9072 13.0063 20.7966 13.297C20.6861 13.5878 20.4113 13.7827 20.101 13.7919L16.5316 13.8974L14.4607 18.1584C14.3354 18.415 14.0789 18.5809 13.794 18.5901ZM17.9106 4.85263C18 4.81013 18.094 4.79276 18.1892 4.78604C16.8416 3.76596 15.1531 3.17708 13.3352 3.23068C11.5083 3.28468 9.84933 3.97784 8.56076 5.08665C8.57442 5.08826 8.58814 5.08963 8.60187 5.091C8.65633 5.09642 8.71099 5.10186 8.76321 5.123L13.3974 7.02067L17.9106 4.85263ZM7.76144 6.12499C7.73744 6.06656 7.72558 6.00465 7.71687 5.94342C6.52753 7.34212 5.82426 9.1623 5.88264 11.1375C5.9068 11.9547 6.06135 12.7371 6.32123 13.4689C6.30427 13.2565 6.37164 13.0416 6.52371 12.8803L9.31399 9.91925L7.76144 6.12499Z" fill="#FFF5D6"/>
</svg>
