<svg width="150" height="430" viewBox="0 0 150 430" fill="none" xmlns="http://www.w3.org/2000/svg">
<path fill-rule="evenodd" clip-rule="evenodd" d="M223.484 170.982C254.296 154.48 239.107 97.5893 235.635 86.2981C339.531 146.978 331.283 335.644 218.136 390.163L222.181 398.109C226.087 405.492 223.049 414.177 216.106 417.651L213.502 418.954C206.124 422.428 197.445 419.823 193.973 412.874L187.831 400.809C185.71 401.304 183.562 401.758 181.387 402.17L182.256 412.44C183.124 420.691 177.049 427.64 169.237 428.508H166.2C158.388 429.377 151.445 423.297 150.577 415.48L149.694 405.057C146.621 405.057 143.61 405.005 140.661 404.904L139.728 415.914C138.86 423.731 131.917 429.811 124.105 428.942L121.067 428.508C113.256 427.64 107.614 420.691 108.048 412.874L109.005 401.572C106.527 401.113 104.104 400.612 101.736 400.07L96.7652 409.834C93.2934 416.783 84.614 419.388 77.2366 415.914L74.6328 414.611C67.6893 411.137 64.6515 402.452 68.5572 395.069L71.3018 389.678C-16.0669 348.173 2.59377 236.992 2.59377 236.992C3.89567 248.283 15.1789 271.3 24.2922 269.997C20.0295 203.574 50.3737 191.45 77.705 180.53C89.329 175.885 100.408 171.459 108.048 163.165C172.276 64.15 140.162 0.745621 140.162 0.745621C217.842 54.5959 224.352 147.097 223.484 170.982ZM145.369 329.059C146.237 329.059 146.671 329.059 147.105 328.624C148.841 327.756 148.841 325.585 146.671 323.413L144.935 322.545C137.354 319.225 129.715 315.849 121.852 312.373C108.109 306.298 93.6798 299.919 77.6703 293.014C77.2364 292.58 77.2364 292.58 76.8024 292.58L76.3684 292.145C75.7175 291.928 74.9581 291.602 74.1987 291.277C73.4392 290.951 72.6797 290.625 72.0288 290.408C72.2785 291.658 72.6721 292.764 73.0439 293.809C73.3181 294.579 73.5804 295.316 73.7646 296.054V296.488C73.7646 296.705 73.8731 296.814 73.9816 296.922C74.0901 297.031 74.1986 297.139 74.1986 297.357C74.6325 298.659 75.0664 299.528 75.5004 300.396L75.5005 300.397C76.3684 301.699 76.8024 303.002 77.2364 304.305L78.5383 306.911C78.8409 307.819 79.3544 308.727 79.7847 309.489C79.9716 309.819 80.1428 310.122 80.2742 310.385L81.5761 312.991C81.8485 313.808 82.2919 314.455 82.6916 315.038C82.9287 315.384 83.1504 315.707 83.3119 316.03C84.1799 316.899 84.6138 317.333 85.0478 318.202C85.4818 318.636 85.8073 319.07 86.1327 319.505C86.4582 319.939 86.7837 320.373 87.2177 320.808L88.9535 322.545L91.1234 324.716C91.4259 325.322 91.9395 325.716 92.3698 326.047C92.5567 326.19 92.7279 326.322 92.8593 326.453C93.2932 326.887 94.1612 327.756 95.0291 328.19C95.2461 328.407 95.5716 328.624 95.897 328.842C96.2225 329.059 96.548 329.276 96.765 329.493L99.3688 330.796C99.637 331.064 99.9052 331.167 100.276 331.308C100.505 331.396 100.773 331.499 101.105 331.664C101.539 331.882 101.973 331.99 102.407 332.099C102.841 332.207 103.275 332.316 103.708 332.533C103.941 332.649 104.142 332.766 104.329 332.874C104.84 333.169 105.243 333.402 105.878 333.402C106.746 333.836 108.048 334.27 108.916 334.27C109.35 334.27 109.676 334.379 110.001 334.487C110.326 334.596 110.652 334.704 111.086 334.704C112.388 335.139 113.256 335.139 114.558 335.139H116.294H121.501H121.935C122.803 334.922 123.78 334.813 124.756 334.704C125.732 334.596 126.709 334.487 127.577 334.27C127.794 334.27 128.119 334.162 128.445 334.053C128.77 333.944 129.096 333.836 129.313 333.836C129.964 333.619 130.615 333.51 131.265 333.402C131.916 333.293 132.567 333.184 133.218 332.967C133.652 332.75 134.086 332.642 134.52 332.533C134.954 332.424 135.388 332.316 135.822 332.099L139.728 330.796C140.596 330.796 141.464 330.362 142.332 329.927C143.634 329.927 144.502 329.493 145.369 329.059ZM241.928 298.008C242.036 297.791 242.144 297.574 242.144 297.357C243.012 295.619 243.446 293.882 243.446 293.448C242.414 293.706 241.535 294.118 240.718 294.501C240.162 294.762 239.634 295.009 239.107 295.185L238.673 295.619C238.423 295.869 238.317 295.975 238.189 296.02C238.095 296.054 237.989 296.054 237.805 296.054C221.796 302.959 207.367 309.337 193.624 315.412C185.76 318.888 178.121 322.265 170.54 325.585L168.804 326.453C167.068 326.887 167.068 329.059 168.804 329.927C169.312 329.927 169.672 330.076 169.97 330.2C170.18 330.287 170.36 330.362 170.54 330.362C171.11 330.552 171.598 330.659 172.038 330.756C172.603 330.879 173.09 330.986 173.577 331.23C174.011 331.447 174.445 331.556 174.879 331.664C175.313 331.773 175.747 331.882 176.181 332.099L180.087 333.402C180.955 333.836 181.823 334.27 182.691 334.27C183.342 334.487 183.993 334.596 184.644 334.704C185.295 334.813 185.946 334.922 186.596 335.139C186.813 335.139 187.139 335.247 187.464 335.356C187.79 335.464 188.115 335.573 188.332 335.573C190.068 336.007 192.238 336.442 193.974 336.442H194.408H199.616H201.351C202.002 336.442 202.545 336.333 203.087 336.224C203.63 336.116 204.172 336.007 204.823 336.007C205.257 336.007 205.583 335.899 205.908 335.79C206.234 335.681 206.559 335.573 206.993 335.573C207.427 335.356 207.969 335.247 208.512 335.139C209.054 335.03 209.597 334.922 210.031 334.704C210.465 334.487 210.79 334.379 211.116 334.27C211.441 334.162 211.767 334.053 212.201 333.836C213.069 333.836 213.937 333.402 214.804 332.967C215.238 332.967 216.106 332.533 216.54 332.099L219.144 330.796C219.361 330.579 219.687 330.362 220.012 330.144C220.338 329.927 220.663 329.71 220.88 329.493C221.314 329.276 221.639 328.95 221.965 328.625C222.29 328.299 222.616 327.973 223.05 327.756C223.352 327.15 223.866 326.756 224.296 326.425C224.483 326.282 224.654 326.15 224.786 326.019L226.956 323.847L228.691 322.11C229.559 321.242 230.427 320.373 230.861 319.505C231.729 318.636 232.163 318.202 232.597 317.333C232.87 316.515 233.313 315.869 233.713 315.286C233.95 314.94 234.171 314.617 234.333 314.293L235.635 311.688C235.852 311.036 236.177 310.493 236.503 309.951C236.828 309.408 237.154 308.865 237.371 308.214L238.673 305.608C239.541 304.305 239.975 303.002 240.409 301.699C240.626 301.265 240.843 300.722 241.06 300.179C241.277 299.636 241.494 299.094 241.711 298.659C241.711 298.442 241.819 298.225 241.928 298.008ZM103.709 75.0074C103.709 75.0074 104.577 110.184 76.8028 132.766C49.0287 155.349 62.9157 175.325 62.9157 175.325C62.9157 175.325 49.4627 160.56 50.3307 131.898C50.985 109.961 80.9925 90.4932 95.7214 80.9375L95.7215 80.9374C100.529 77.8184 103.709 75.7554 103.709 75.0074Z" fill="#3A3B47"/>
</svg>
