<svg width="41" height="53" viewBox="0 0 41 53" fill="none" xmlns="http://www.w3.org/2000/svg">
<path d="M9.25929 35.9492C9.47037 36.9647 9.68146 37.9802 9.47038 38.9957L0.623505 52.1819L31.6339 51.7122C31.6339 51.7122 38.605 49.9816 39.6532 42.0805C40.1639 38.2308 41.3436 25.794 38.3885 22.5444C36.2777 20.3103 36.4888 17.873 37.3331 15.4358C37.7553 14.4203 38.1774 13.4048 38.5995 12.1862C38.3884 12.1862 38.3885 11.9831 38.1774 11.9831C37.5442 12.9986 36.6999 14.0141 36.2777 15.2327C35.0112 18.2793 35.0112 21.3258 36.0666 24.3723C36.4888 25.5909 36.2777 26.6065 35.6444 27.622C35.0112 28.6375 33.7447 29.0437 32.4782 28.6375C31.4228 28.2313 30.7896 27.4189 31.0007 26.4034C31.4228 24.5754 32.056 22.7475 32.4782 21.1227C33.1114 19.0917 33.9558 17.0606 33.9558 15.0296C34.1669 10.3583 32.2671 6.29621 29.312 2.64036C28.4677 1.62485 27.4123 0.81244 26.568 3.05176e-05L26.3569 0.203134C26.5679 0.609339 26.9901 1.21864 27.2012 1.62485C28.0455 3.24967 29.1009 4.67138 29.7342 6.49931C30.7896 9.13964 30.5785 11.9831 29.1009 14.4203C28.2566 16.0451 26.779 16.6544 25.0904 16.2482C22.9796 15.6389 21.7131 14.0141 22.3463 11.5769C22.7685 9.74895 23.4017 7.92103 24.035 6.29621C22.5574 7.71793 21.2909 9.34274 20.2355 11.1707C17.9136 15.6389 18.1247 20.1072 19.8133 24.5754C20.6577 26.8096 21.502 29.2468 22.1352 31.4809C22.5574 33.5119 22.3463 35.543 20.4466 36.7616C18.3358 38.1833 17.2804 37.574 16.8582 35.543C16.6471 34.7305 16.436 33.715 16.6471 32.9026C17.0693 30.4654 16.4361 28.4344 15.1696 26.4034C14.1142 24.7785 13.0588 23.1537 12.8477 21.1227C12.6366 21.5289 12.2144 21.732 12.2144 22.1382C11.7922 23.763 12.4255 24.9816 12.8477 26.4034C13.2699 27.622 13.692 29.0437 13.9031 30.2623C14.1142 31.4809 13.2699 32.2933 12.0034 32.2933C10.7369 32.2933 9.89257 31.684 9.89257 30.2623C9.89257 29.2468 10.3147 28.0282 10.3147 27.0127C8.41496 28.2313 7.57063 29.653 7.99279 31.8871C8.41495 33.3088 9.04821 34.5274 9.25929 35.9492Z" fill="white"/>
</svg>
