<svg width="23" height="27" viewBox="0 0 23 27" fill="none" xmlns="http://www.w3.org/2000/svg">
<path fill-rule="evenodd" clip-rule="evenodd" d="M19.4527 6.70732C19.4527 7.24623 19.1195 7.7074 18.6494 7.89934C19.9672 9.39795 22.888 13.4584 22.888 20.0187V20.8702C22.888 22.5505 21.9042 24.0594 20.382 24.7142C18.3509 25.5876 15.4379 26.0303 11.7235 26.0303C8.00917 26.0303 5.09612 25.5876 3.06549 24.7142C1.54283 24.0594 0.559082 22.5505 0.559082 20.8702V20.0187C0.559082 13.4583 3.47985 9.3979 4.7977 7.89929C4.32752 7.70691 3.99431 7.24618 3.99431 6.70727C3.99431 6.12368 4.38636 5.63545 4.91923 5.47745L3.34763 3.27719C3.19993 3.07065 3.12779 2.82502 3.14411 2.58543L3.14926 2.51933C3.21151 1.79451 3.65165 1.18089 4.3254 0.879001C5.00899 0.572856 5.77249 0.654848 6.36548 1.09929C6.90439 1.50297 7.75033 1.98388 8.71775 1.98388C9.35112 1.98388 9.91581 1.82762 10.3954 1.51885C11.2018 1.00013 12.2444 1.00013 13.0517 1.51925C13.5313 1.82757 14.096 1.98388 14.7294 1.98388C15.6968 1.98388 16.5427 1.50292 17.0816 1.09929C17.6751 0.654848 18.4381 0.572856 19.1217 0.879001C19.7959 1.18089 20.2352 1.79451 20.2978 2.51977L20.303 2.58761C20.3197 2.82463 20.2472 3.07026 20.0999 3.27679L18.5278 5.4775C19.0607 5.63555 19.4527 6.12378 19.4527 6.70732ZM10.006 11.0013C10.006 12.6124 8.403 14.5727 8.38667 14.5924C8.23595 14.7753 8.26128 15.0459 8.44422 15.1969C8.52453 15.263 8.62111 15.2952 8.71775 15.2952C8.84101 15.2952 8.96383 15.242 9.04884 15.1398C9.12271 15.0501 10.8648 12.9228 10.8648 11.0085C10.8648 10.9901 10.9047 9.37207 11.7236 8.23374C12.5296 9.35725 12.5809 10.9563 12.5824 11.0004L12.5824 11.0013C12.5824 13.0929 14.1196 13.5437 14.1849 13.5618C14.2231 13.5725 14.2618 13.5777 14.2996 13.5777C14.4855 13.5777 14.6551 13.4549 14.7096 13.2676C14.7753 13.0418 14.6447 12.8047 14.4197 12.736C14.3798 12.7236 13.4411 12.4209 13.4411 10.994C13.4399 10.9137 13.3999 9.31333 12.5948 7.99548H10.8523C10.0472 9.31333 10.0073 10.915 10.006 11.0013ZM17.9001 7.13673H18.1646C18.4012 7.13673 18.594 6.94394 18.594 6.70732C18.594 6.4707 18.4012 6.27792 18.1646 6.27792H17.9563H5.49079H5.28252C5.0459 6.27792 4.85312 6.4707 4.85312 6.70732C4.85312 6.94394 5.0459 7.13673 5.28252 7.13673H5.54705H11.7236H17.9001ZM14.01 19.9824C14.0445 20.0752 14.0753 20.1699 14.0989 20.2678C14.1111 20.3171 14.1227 20.3663 14.132 20.4165C14.1582 20.5636 14.1774 20.714 14.1774 20.8695C14.1774 20.9143 14.1713 20.9577 14.1652 21.0009L14.1614 21.0289L14.1185 21.4064C13.8709 22.5601 12.8446 23.4291 11.6178 23.4291C10.7527 23.4291 9.98997 22.9947 9.526 22.3362L9.45882 22.2287C9.35456 22.0636 9.2758 21.8882 9.21121 21.709C9.18495 21.6335 9.15937 21.5587 9.1402 21.4806C9.12611 21.4237 9.11335 21.3667 9.1031 21.3097C9.07818 21.1658 9.05834 21.0199 9.05834 20.8695C9.05834 20.7089 9.07752 20.5534 9.10569 20.4011C9.11119 20.3732 9.11782 20.3459 9.12445 20.3185L9.12447 20.3185C9.12787 20.3045 9.13127 20.2904 9.13452 20.2764C9.16202 20.1624 9.19661 20.0511 9.23819 19.9436L9.25124 19.9097L9.25127 19.9097C9.26127 19.8834 9.27132 19.857 9.28296 19.8316C9.33996 19.7035 9.40588 19.5807 9.48264 19.4649C9.48548 19.4603 9.48795 19.4557 9.49038 19.4512C9.49339 19.4456 9.49635 19.4401 9.4999 19.4348C9.58182 19.3138 9.67657 19.2031 9.77701 19.0988C9.80989 19.0649 9.84531 19.0339 9.88083 19.0028L9.88092 19.0027L9.881 19.0026C9.89306 18.9921 9.90513 18.9815 9.91711 18.9708C9.97278 18.9209 10.0304 18.8729 10.0899 18.8281C10.1603 18.7763 10.2326 18.7264 10.3087 18.6816C10.3346 18.6659 10.3615 18.6518 10.3885 18.6377L10.4194 18.6214C10.5128 18.5722 10.6069 18.5242 10.708 18.4857L10.726 18.4787C11.005 18.3744 11.3031 18.3098 11.618 18.3098C11.9564 18.3098 12.2777 18.3789 12.5733 18.4986L12.6694 18.5421C12.8588 18.6278 13.0309 18.7398 13.1902 18.8646C13.2402 18.9037 13.2907 18.9434 13.3374 18.9862C13.3944 19.0374 13.4481 19.0917 13.4999 19.1481C13.5493 19.2024 13.5954 19.26 13.6401 19.3183C13.6513 19.3327 13.6627 19.3471 13.6741 19.3614L13.6741 19.3614L13.6742 19.3615C13.705 19.4004 13.7359 19.4392 13.763 19.4808C13.834 19.5908 13.8973 19.7073 13.9518 19.8282C13.9677 19.8637 13.9807 19.9004 13.9937 19.9372L13.9989 19.9517L14.01 19.9824ZM9.12348 17.9564C9.23674 17.8592 9.35384 17.767 9.47801 17.6831C9.01537 17.2666 8.4158 17.0298 7.77906 17.0298C6.3674 17.0298 5.21943 18.1778 5.21943 19.5895C5.21943 21.0734 6.50374 22.2867 7.99918 22.1382C7.93067 21.9437 7.87691 21.7434 7.84049 21.536C7.83877 21.5249 7.83722 21.5138 7.83565 21.5025C7.83434 21.4931 7.83301 21.4836 7.83157 21.4739C7.79956 21.2762 7.77906 21.0753 7.77906 20.8692C7.77906 20.7201 7.78931 20.5736 7.8059 20.429C7.80985 20.3967 7.81499 20.3649 7.82015 20.333L7.82015 20.333C7.82338 20.3131 7.82662 20.2931 7.82958 20.2729C7.84366 20.1839 7.85966 20.095 7.8795 20.0079C7.89424 19.9439 7.91084 19.8812 7.92875 19.8192C7.94859 19.7475 7.9716 19.6777 7.99593 19.6086L8.00154 19.5924C8.02327 19.5294 8.04479 19.467 8.07019 19.4051C8.08804 19.3622 8.10807 19.3203 8.1281 19.2784L8.12811 19.2784L8.14761 19.2374C8.21095 19.1037 8.28137 18.9744 8.35939 18.849C8.3697 18.8325 8.37967 18.8158 8.38963 18.7992L8.38964 18.7992C8.40754 18.7693 8.4254 18.7395 8.44515 18.7108C8.47791 18.6626 8.51359 18.6165 8.54948 18.5702L8.57633 18.5354C8.61984 18.4785 8.66467 18.4222 8.71201 18.3677C8.75102 18.3217 8.79136 18.2775 8.83361 18.234C8.90595 18.1572 8.98145 18.0849 9.05947 18.0145C9.06948 18.0057 9.07923 17.9967 9.08895 17.9876C9.10036 17.977 9.11174 17.9665 9.12348 17.9564ZM13.6486 17.6165C13.9526 16.528 14.9413 15.7499 16.0976 15.7499C17.5092 15.7499 18.6572 16.8978 18.6572 18.3094C18.6572 19.7211 17.5092 20.8691 16.0976 20.8691C15.8819 20.8691 15.6675 20.8409 15.457 20.784C15.4563 20.7681 15.4546 20.7525 15.4528 20.737C15.4511 20.7212 15.4493 20.7054 15.4487 20.6893C15.4435 20.5799 15.4346 20.4718 15.4205 20.3642C15.4147 20.322 15.4083 20.2804 15.4013 20.2388C15.3815 20.1198 15.3559 20.0027 15.3258 19.8875C15.3232 19.8777 15.3207 19.8678 15.3183 19.8579C15.3148 19.8438 15.3113 19.8297 15.3072 19.8158C15.1786 19.3654 14.9694 18.9507 14.6962 18.584L14.6866 18.5706C14.4024 18.1924 14.0511 17.8686 13.6486 17.6165Z" fill="#FFF5D6"/>
</svg>
