<svg width="29" height="32" viewBox="0 0 29 32" fill="none" xmlns="http://www.w3.org/2000/svg">
<path d="M7.8226 23.0341C7.59079 22.5008 7.39575 21.9471 7.23734 21.3804L2.65844 26.4355L1.41751 31.1422L5.6808 29.7722L9.38981 25.6774C8.76617 24.8755 8.23561 23.9843 7.8226 23.0341Z" fill="white"/>
<path d="M28.0795 1.70726C27.5837 1.15987 26.9244 0.858398 26.2232 0.858398C25.522 0.858398 24.8627 1.15987 24.3668 1.70726C23.9626 2.15358 23.7056 2.73027 23.6257 3.34568L26.5959 6.62473C27.1532 6.53588 27.6768 6.25052 28.0795 5.80591C29.103 4.67585 29.103 2.8372 28.0795 1.70726Z" fill="white"/>
<path d="M21.314 3.43945L20.1407 4.73482L21.2277 5.93492L19.7585 7.55698H22.6377V11.0517L24.2501 9.27161L25.3372 10.4718L26.5105 9.17641L21.314 3.43945Z" fill="white"/>
<path d="M21.5561 23.0306C21.1435 23.977 20.6144 24.8645 19.9927 25.6633L23.7146 29.7722L27.9779 31.1422L26.7369 26.4355L22.1461 21.3672C21.9866 21.9373 21.79 22.4943 21.5561 23.0306Z" fill="white"/>
<path d="M6.74669 7.55698H9.63686L8.16761 5.93492L9.25466 4.73482L8.08132 3.43945L2.88486 9.17641L4.05819 10.4718L5.14524 9.27167L6.74669 11.0396V7.55698Z" fill="white"/>
<path d="M5.76827 3.33585C5.6869 2.7241 5.43053 2.1512 5.02847 1.70726C4.53259 1.15987 3.87333 0.858398 3.17214 0.858398C2.47089 0.858398 1.81163 1.15987 1.31581 1.70726C0.292313 2.83726 0.292313 4.67591 1.31581 5.80591C1.71643 6.2482 2.23653 6.53276 2.7906 6.6232L5.76827 3.33585Z" fill="white"/>
<path d="M20.9783 9.38892H8.40604V17.8136C8.40604 20.9348 9.67097 23.845 11.8765 25.7978L14.6758 28.2762L17.4903 25.7966C19.707 23.8437 20.9784 20.928 20.9784 17.797V9.38892H20.9783ZM16.2133 24.0299L14.679 25.3816L13.1574 24.0344C11.439 22.5129 10.4533 20.2455 10.4533 17.8135V11.6492H18.931V17.797C18.931 20.2365 17.9404 22.5083 16.2133 24.0299Z" fill="white"/>
<path d="M12.1127 17.8136C12.1127 19.6868 12.8719 21.4334 14.1956 22.6054L14.6815 23.0357L15.1782 22.5981C16.5085 21.426 17.2716 19.6761 17.2716 17.797V13.4812H12.1126V17.8136H12.1127Z" fill="white"/>
</svg>
