<svg width="35" height="38" viewBox="0 0 35 38" fill="none" xmlns="http://www.w3.org/2000/svg">
<path fill-rule="evenodd" clip-rule="evenodd" d="M20.4306 14.0464C22.5292 12.8064 21.4947 8.53167 21.2582 7.68325C28.3345 12.2427 27.7727 26.419 20.0664 30.5155L20.3419 31.1125C20.6079 31.6673 20.401 32.3199 19.9281 32.581L19.7508 32.6789C19.2483 32.9399 18.6571 32.7441 18.4207 32.222L18.0023 31.3154C17.8579 31.3526 17.7116 31.3867 17.5634 31.4177L17.6226 32.1894C17.6818 32.8094 17.268 33.3315 16.7359 33.3967H16.529C15.997 33.462 15.5241 33.0052 15.465 32.4178L15.4048 31.6346C15.1955 31.6346 14.9905 31.6307 14.7896 31.6231L14.7261 32.4504C14.6669 33.0378 14.194 33.4946 13.662 33.4294L13.4551 33.3967C12.9231 33.3315 12.5388 32.8094 12.5684 32.222L12.6336 31.3728C12.4647 31.3383 12.2997 31.3006 12.1384 31.2599L11.7999 31.9936C11.5634 32.5157 10.9723 32.7115 10.4698 32.4504L10.2925 32.3525C9.81954 32.0915 9.61264 31.4389 9.87866 30.8841L10.0656 30.479C4.11496 27.3604 5.38593 19.0063 5.38593 19.0063C5.4746 19.8547 6.24309 21.5842 6.8638 21.4863C6.57347 16.4953 8.64019 15.5843 10.5017 14.7638C11.2934 14.4148 12.048 14.0822 12.5684 13.459C16.9429 6.01906 14.7556 1.25488 14.7556 1.25488C20.0464 5.30117 20.4897 12.2516 20.4306 14.0464ZM15.1103 25.9242C15.1694 25.9242 15.199 25.9242 15.2285 25.8915C15.3468 25.8263 15.3468 25.6631 15.199 25.5L15.0807 25.4347C14.5643 25.1853 14.044 24.9315 13.5084 24.6703C12.5724 24.2139 11.5897 23.7346 10.4994 23.2158C10.4698 23.1831 10.4698 23.1831 10.4402 23.1831L10.4107 23.1505C10.3663 23.1342 10.3146 23.1097 10.2629 23.0852C10.2112 23.0608 10.1594 23.0363 10.1151 23.02C10.1321 23.1139 10.1589 23.197 10.1842 23.2755C10.2029 23.3334 10.2208 23.3888 10.2333 23.4442V23.4768C10.2333 23.4931 10.2407 23.5013 10.2481 23.5094C10.2555 23.5176 10.2629 23.5258 10.2629 23.5421C10.2924 23.64 10.322 23.7052 10.3516 23.7705C10.4107 23.8684 10.4402 23.9663 10.4698 24.0642L10.5585 24.26C10.5791 24.3282 10.614 24.3965 10.6434 24.4537C10.6561 24.4785 10.6677 24.5013 10.6767 24.521L10.7654 24.7168C10.7839 24.7783 10.8141 24.8268 10.8413 24.8706C10.8575 24.8966 10.8726 24.9209 10.8836 24.9452C10.9427 25.0105 10.9723 25.0431 11.0018 25.1084C11.0314 25.141 11.0536 25.1736 11.0757 25.2063C11.0979 25.2389 11.1201 25.2715 11.1496 25.3042L11.2678 25.4347L11.4156 25.5978C11.4362 25.6434 11.4712 25.673 11.5005 25.6978C11.5133 25.7086 11.5249 25.7185 11.5339 25.7284C11.5634 25.761 11.6225 25.8263 11.6816 25.8589C11.6964 25.8752 11.7186 25.8915 11.7408 25.9078C11.7629 25.9242 11.7851 25.9405 11.7999 25.9568L11.9772 26.0547C11.9955 26.0749 12.0138 26.0826 12.039 26.0932C12.0546 26.0998 12.0729 26.1075 12.0954 26.1199C12.125 26.1363 12.1546 26.1444 12.1841 26.1526C12.2137 26.1607 12.2432 26.1689 12.2728 26.1852C12.2886 26.194 12.3023 26.2027 12.3151 26.2108C12.3499 26.233 12.3773 26.2505 12.4206 26.2505C12.4797 26.2831 12.5684 26.3157 12.6275 26.3157C12.657 26.3157 12.6792 26.3239 12.7014 26.3321C12.7235 26.3402 12.7457 26.3484 12.7753 26.3484C12.8639 26.381 12.923 26.381 13.0117 26.381H13.0117H13.13H13.4846H13.5142C13.5733 26.3647 13.6398 26.3565 13.7063 26.3484C13.7728 26.3402 13.8393 26.3321 13.8984 26.3157C13.9132 26.3157 13.9354 26.3076 13.9576 26.2994C13.9797 26.2913 14.0019 26.2831 14.0167 26.2831C14.061 26.2668 14.1053 26.2586 14.1497 26.2505C14.194 26.2423 14.2384 26.2342 14.2827 26.2178C14.3122 26.2015 14.3418 26.1934 14.3714 26.1852C14.4009 26.1771 14.4305 26.1689 14.46 26.1526L14.7261 26.0547C14.7852 26.0547 14.8443 26.0221 14.9034 25.9894C14.9921 25.9894 15.0512 25.9568 15.1103 25.9242ZM21.6868 23.591C21.6942 23.5747 21.7016 23.5584 21.7016 23.5421C21.7607 23.4116 21.7903 23.281 21.7903 23.2484C21.7199 23.2678 21.6601 23.2988 21.6044 23.3275C21.5665 23.3471 21.5306 23.3657 21.4947 23.3789L21.4651 23.4116C21.4356 23.4442 21.4356 23.4442 21.406 23.4442C20.3157 23.963 19.333 24.4423 18.397 24.8987C17.8614 25.1599 17.341 25.4137 16.8246 25.6631L16.7064 25.7284C16.5882 25.761 16.5882 25.9242 16.7064 25.9894C16.741 25.9894 16.7655 26.0006 16.7858 26.0099C16.8001 26.0165 16.8124 26.0221 16.8246 26.0221C16.8635 26.0364 16.8967 26.0444 16.9267 26.0517C16.9651 26.061 16.9983 26.069 17.0315 26.0873C17.0611 26.1036 17.0906 26.1118 17.1202 26.1199C17.1498 26.1281 17.1793 26.1363 17.2089 26.1526L17.4749 26.2505C17.534 26.2831 17.5931 26.3157 17.6522 26.3157C17.6966 26.3321 17.7409 26.3402 17.7852 26.3484C17.8296 26.3565 17.8739 26.3647 17.9182 26.381C17.933 26.381 17.9552 26.3892 17.9774 26.3973C17.9995 26.4055 18.0217 26.4136 18.0365 26.4136C18.1547 26.4463 18.3025 26.4789 18.4207 26.4789H18.4503H18.805H18.9232C18.9675 26.4789 19.0045 26.4707 19.0414 26.4626C19.0784 26.4544 19.1153 26.4463 19.1597 26.4463C19.1892 26.4463 19.2114 26.4381 19.2336 26.4299C19.2557 26.4218 19.2779 26.4136 19.3074 26.4136C19.337 26.3973 19.3739 26.3892 19.4109 26.381C19.4478 26.3728 19.4848 26.3647 19.5143 26.3484C19.5439 26.3321 19.5661 26.3239 19.5882 26.3157C19.6104 26.3076 19.6326 26.2994 19.6621 26.2831C19.7212 26.2831 19.7804 26.2505 19.8395 26.2178C19.869 26.2178 19.9281 26.1852 19.9577 26.1526L20.135 26.0547C20.1498 26.0384 20.172 26.0221 20.1942 26.0057C20.2163 25.9894 20.2385 25.9731 20.2533 25.9568C20.2828 25.9405 20.305 25.916 20.3272 25.8915C20.3493 25.8671 20.3715 25.8426 20.4011 25.8263C20.4217 25.7808 20.4567 25.7511 20.486 25.7263C20.4987 25.7155 20.5103 25.7056 20.5193 25.6957L20.6671 25.5326L20.7853 25.4021C20.8444 25.3368 20.9035 25.2715 20.9331 25.2063C20.9922 25.141 21.0218 25.1084 21.0513 25.0431C21.0699 24.9817 21.1001 24.9331 21.1273 24.8893C21.1435 24.8633 21.1586 24.839 21.1696 24.8147L21.2582 24.6189C21.273 24.57 21.2952 24.5292 21.3173 24.4884C21.3395 24.4476 21.3617 24.4068 21.3765 24.3579L21.4651 24.1621C21.5242 24.0642 21.5538 23.9663 21.5834 23.8684L21.5834 23.8684C21.5981 23.8358 21.6129 23.795 21.6277 23.7542C21.6425 23.7134 21.6573 23.6726 21.672 23.64C21.672 23.6237 21.6794 23.6073 21.6868 23.591ZM12.2728 6.83487C12.2728 6.83487 12.3319 9.47801 10.4403 11.1748C8.54858 12.8717 9.49442 14.3727 9.49442 14.3727C9.49442 14.3727 8.57814 13.2632 8.63725 11.1096C8.68182 9.46128 10.7256 7.99847 11.7288 7.28045L11.7288 7.28045C12.0562 7.04609 12.2728 6.89108 12.2728 6.83487Z" fill="white"/>
<path d="M27.74 35.6323C28.1505 35.6268 28.5362 35.4475 28.8259 35.1276C29.4353 34.4548 29.4354 33.3601 28.826 32.6874C28.2167 32.0147 27.225 32.0146 26.6157 32.6874C26.3948 32.9311 26.0368 32.9311 25.816 32.6874L23.7143 30.1611C23.1512 30.4597 22.7295 30.7687 22.1967 31.2102H22.088V31.4464L24.514 34.1247C24.7348 34.3686 24.7348 34.7638 24.514 35.0076C24.2188 35.3336 24.0562 35.7668 24.0562 36.2277C24.0562 36.6886 24.2188 37.1219 24.514 37.4478C24.8092 37.7737 25.2017 37.9532 25.6192 37.9532C26.0367 37.9532 26.4291 37.7737 26.7243 37.4478C27.0141 37.1278 27.1765 36.7021 27.1815 36.249C27.1852 35.9101 27.4331 35.6365 27.74 35.6323Z" fill="white"/>
<path d="M1.66311 9.79809C1.25252 9.80364 0.866877 9.98294 0.577132 10.3028C-0.0322148 10.9756 -0.0323274 12.0703 0.577019 12.743C1.18637 13.4158 2.17802 13.4158 2.78737 12.743C3.0083 12.4993 3.36624 12.4993 3.58711 12.743L5.68872 15.2693C6.25181 14.9707 6.67356 14.6617 7.20632 14.2203L7.31506 14.2203L7.31506 13.984L4.88904 11.3057C4.66823 11.0619 4.66823 10.6666 4.88904 10.4228C5.18427 10.0969 5.34684 9.66362 5.34684 9.20271C5.34684 8.74181 5.18427 8.30856 4.88904 7.98263C4.59387 7.6567 4.20138 7.47722 3.78389 7.47722C3.36641 7.47722 2.97398 7.6567 2.67875 7.98263C2.38894 8.30257 2.2266 8.72833 2.22156 9.18143C2.21789 9.52028 1.96999 9.79397 1.66311 9.79809Z" fill="white"/>
<path d="M2.41903 35.6191C2.36605 36.0686 2.47239 36.5154 2.71834 36.8773C3.23563 37.6382 4.21728 37.7929 4.90654 37.2218C5.5958 36.6508 5.73584 35.567 5.21855 34.806C5.03119 34.5302 5.08171 34.139 5.33144 33.932L7.89345 31.9916C7.70518 31.334 7.48764 30.8295 7.16698 30.1849L7.18233 30.066L6.9705 30.0327L4.22632 32.3061C3.97649 32.5131 3.62202 32.4573 3.43459 32.1815C3.18399 31.8128 2.81843 31.574 2.40513 31.5089C1.99182 31.4439 1.58037 31.5604 1.24642 31.8371C0.912481 32.1137 0.696136 32.5173 0.637206 32.9736C0.578275 33.4299 0.683822 33.8841 0.934423 34.2528C1.18042 34.6147 1.53929 34.8522 1.94488 34.9217C2.24823 34.9735 2.45865 35.2831 2.41903 35.6191Z" fill="white"/>
<path d="M32.2955 9.93608C32.3484 9.48655 32.2421 9.03975 31.9961 8.67792C31.4789 7.91697 30.4972 7.76232 29.8079 8.33334C29.1187 8.90437 28.9786 9.98819 29.4959 10.7491C29.6833 11.025 29.6328 11.4162 29.383 11.6232L26.821 13.5636C27.0093 14.2211 27.2268 14.7257 27.5475 15.3703L27.5321 15.4891L27.744 15.5225L30.4882 13.249C30.738 13.0421 31.0925 13.0979 31.2799 13.3737C31.5305 13.7423 31.896 13.9812 32.3094 14.0462C32.7227 14.1113 33.1341 13.9948 33.4681 13.7181C33.802 13.4415 34.0183 13.0379 34.0773 12.5816C34.1362 12.1253 34.0307 11.6711 33.7801 11.3024C33.5341 10.9405 33.1752 10.7029 32.7696 10.6335C32.4663 10.5816 32.2558 10.2721 32.2955 9.93608Z" fill="white"/>
</svg>
