<svg width="26" height="26" viewBox="0 0 26 26" fill="none" xmlns="http://www.w3.org/2000/svg">
<path fill-rule="evenodd" clip-rule="evenodd" d="M23.2763 18.306H15.3345C15.0698 18.306 14.8552 18.0802 14.8552 17.8016C14.8552 17.5231 15.0698 17.2972 15.3345 17.2972H20.0102V4.366C20.0076 2.25415 18.4106 0.542815 16.4397 0.540039H4.32924C2.35469 0.541301 0.754974 2.25756 0.75615 4.37338C0.757329 6.48915 2.35899 8.20332 4.33348 8.20206C5.33014 8.20143 6.28135 7.75498 6.95759 6.97049V21.709C6.95759 23.8229 8.55542 25.5373 10.5281 25.54H21.7671C23.7404 25.4633 25.2819 23.6869 25.2103 21.5725C25.162 20.1474 24.3903 18.9225 23.2763 18.306ZM4.32924 7.18753C2.87501 7.1903 1.694 5.92932 1.6914 4.37105C1.68881 2.81278 2.86559 1.54726 4.31982 1.54448C5.77404 1.5417 6.95506 2.80268 6.95765 4.36096V4.366C6.95765 5.92232 5.78158 7.18475 4.32924 7.18753ZM10.5329 24.5053C9.07863 24.5081 7.89761 23.2471 7.89502 21.6888C7.89243 20.1306 9.06921 18.865 10.5234 18.8623C11.9777 18.8595 13.1587 20.1205 13.1613 21.6787V21.6838C13.1613 23.2401 11.9852 24.5025 10.5329 24.5053ZM15.4788 3.86126H11.0369C10.7767 3.86126 10.5658 4.08726 10.5658 4.36601C10.5658 4.64475 10.7767 4.87075 11.0369 4.87075H15.4788C15.7389 4.87075 15.9498 4.64475 15.9498 4.36601C15.9498 4.08726 15.7389 3.86126 15.4788 3.86126ZM9.08205 6.46575H17.7021C17.9622 6.46575 18.1731 6.69175 18.1731 6.97049C18.1731 7.24924 17.9622 7.47524 17.7021 7.47524H9.08205C8.82192 7.47524 8.61101 7.24924 8.61101 6.97049C8.61101 6.69175 8.82192 6.46575 9.08205 6.46575ZM17.7021 9.20145H9.08205C8.82192 9.20145 8.61101 9.42745 8.61101 9.7062C8.61101 9.98494 8.82192 10.2109 9.08205 10.2109H17.7021C17.9622 10.2109 18.1731 9.98494 18.1731 9.7062C18.1731 9.42745 17.9622 9.20145 17.7021 9.20145ZM9.08205 11.9574H17.7021C17.9622 11.9574 18.1731 12.1834 18.1731 12.4621C18.1731 12.7409 17.9622 12.9669 17.7021 12.9669H9.08205C8.82192 12.9669 8.61101 12.7409 8.61101 12.4621C8.61101 12.1834 8.82192 11.9574 9.08205 11.9574ZM17.7021 14.7133H9.08204C8.82191 14.7133 8.611 14.9393 8.611 15.218C8.611 15.4968 8.82191 15.7228 9.08204 15.7228H17.7021C17.9622 15.7228 18.1731 15.4968 18.1731 15.218C18.1731 14.9393 17.9622 14.7133 17.7021 14.7133Z" fill="#FFF5D6"/>
</svg>
