<svg width="30" height="30" viewBox="0 0 30 30" fill="none" xmlns="http://www.w3.org/2000/svg">
<path d="M20.4598 26.9315V28.5669C20.4598 28.954 20.7737 29.2678 21.1607 29.2678H23.4971C24.1423 29.2678 24.6653 28.7448 24.6653 28.0996C24.6653 27.4545 24.1423 26.9315 23.4971 26.9315H20.4598Z" fill="#FFF5D6"/>
<path d="M5.17998 6.37143H4.01179C2.97954 6.37143 2.1427 7.20822 2.1427 8.24052V20.9786C2.67296 20.6079 3.31719 20.3896 4.01179 20.3896H5.88089V7.07234C5.88089 6.68525 5.56707 6.37143 5.17998 6.37143Z" fill="#FFF5D6"/>
<path d="M24.7502 9.17508C24.4316 10.0379 24.0037 10.988 23.4313 11.9368C23.1835 12.3477 22.7749 12.6403 22.3067 12.7431C22.3423 13.2091 22.1914 13.6874 21.8516 14.0591C21.8278 14.0851 21.7746 14.1442 21.7746 14.1442C21.6947 14.233 21.5941 14.3448 21.4796 14.4592C19.6409 16.298 17.4024 17.322 15.8483 17.8573C14.2056 18.4232 12.9814 18.5788 12.8472 18.5947C12.78 18.6026 12.7103 18.6068 12.6412 18.6068C12.4185 18.6068 12.2023 18.565 12.0009 18.4861L11.1544 19.3326C11.0176 19.4695 10.8381 19.5379 10.6588 19.5379C10.4784 19.5379 10.2982 19.4688 10.161 19.3305C9.88687 19.054 9.90257 18.602 10.1779 18.3267L11.0096 17.495C10.9055 17.2303 10.8665 16.941 10.9011 16.6486C10.9171 16.5136 11.0735 15.2875 11.6384 13.6474C12.0652 12.4086 12.8031 10.7348 14.0163 9.17513H7.28271V21.0906C7.28271 21.4777 6.96889 21.7915 6.5818 21.7915H4.01179C2.97954 21.7915 2.1427 22.6283 2.1427 23.6606C2.1427 24.6929 2.97954 25.5297 4.01179 25.5297H23.4971C24.9142 25.5297 26.0671 26.6826 26.0671 28.0997V10.492C26.0671 9.76468 25.4775 9.17508 24.7502 9.17508Z" fill="#FFF5D6"/>
<path d="M17.7625 11.7331C18.0362 12.0068 18.0362 12.4506 17.7625 12.7243L13.4092 17.0776C13.8937 16.9783 14.5875 16.8089 15.3916 16.5319C16.8061 16.0447 18.8386 15.1175 20.4883 13.4678C20.576 13.3801 20.6561 13.2912 20.7335 13.2052C20.7612 13.1745 20.7889 13.1438 20.8168 13.1132C20.9433 12.9748 20.9385 12.7615 20.806 12.6289L19.9602 11.7831L21.9996 11.3752C22.0961 11.3559 22.1801 11.2969 22.2309 11.2126C23.4384 9.21114 23.9446 7.19747 24.1388 6.17526C24.1821 5.94732 24.1102 5.71317 23.9463 5.54902C23.7827 5.38505 23.5491 5.31263 23.3215 5.35552C21.9728 5.60911 18.5624 6.47259 16.0278 9.00717C14.378 10.6569 13.4509 12.6894 12.9637 14.1039C12.6867 14.908 12.5173 15.6018 12.418 16.0864L16.7713 11.7331C17.045 11.4594 17.4889 11.4594 17.7625 11.7331Z" fill="#FFF5D6"/>
</svg>
