<svg width="27" height="27" viewBox="0 0 27 27" fill="none" xmlns="http://www.w3.org/2000/svg">
<path d="M12.0248 3.76924H12.7389V7.35226C13.0016 7.46519 13.2589 7.59623 13.5085 7.74574C13.7436 7.60499 13.9853 7.48037 14.232 7.37202V3.76924H14.946C15.3583 3.76924 15.6926 3.43499 15.6926 3.0227C15.6926 2.61042 15.3583 2.27617 14.946 2.27617H14.232V1.40427C14.232 0.991979 13.8978 0.65773 13.4855 0.65773C13.0732 0.65773 12.7389 0.991979 12.7389 1.40427V2.27617H12.0249C11.6126 2.27617 11.2783 2.61042 11.2783 3.0227C11.2783 3.43499 11.6125 3.76924 12.0248 3.76924Z" fill="#FFF5D6"/>
<path d="M6.81831 20.8868H7.74058C6.60898 18.6754 5.74798 16.3773 5.38043 15.3961C5.32594 15.2507 5.28254 15.1346 5.25088 15.0531C4.60344 13.3833 4.64241 11.5498 5.35779 10.0225C6.00603 8.63855 7.14549 7.61291 8.56635 7.13448C8.64284 7.1087 8.71989 7.08531 8.79723 7.06306C7.37811 6.29154 5.76774 6.12447 4.32428 6.61051C2.99212 7.05913 1.92258 8.02321 1.31276 9.32516C0.627341 10.7885 0.5931 12.5534 1.2189 14.1674C1.25299 14.2553 1.29907 14.3781 1.35646 14.531C1.86604 15.888 3.14401 19.2906 4.8055 22.0143C5.22157 21.3384 5.96811 20.8868 6.81831 20.8868Z" fill="#FFF5D6"/>
<path d="M25.7043 9.32515C25.0944 8.0232 24.025 7.05912 22.6927 6.6105C21.268 6.13078 19.6621 6.2992 18.2328 7.06683C18.3057 7.08804 18.3785 7.11018 18.4507 7.13452C19.8715 7.61295 21.0109 8.63859 21.6592 10.0225C22.3746 11.5497 22.4136 13.3833 21.7661 15.0531C21.7378 15.1263 21.6999 15.2268 21.6531 15.3509C21.2777 16.3463 20.4003 18.6727 19.2335 20.8867H20.1987C21.0331 20.8867 21.7673 21.322 22.1876 21.977C23.8871 19.1813 25.2279 15.663 25.6972 14.431C25.7381 14.3239 25.7719 14.2352 25.7981 14.1673C26.4239 12.5534 26.3897 10.7885 25.7043 9.32515Z" fill="#FFF5D6"/>
<path d="M9.40161 20.8868H17.5609C19.017 18.2995 20.1051 15.2566 20.374 14.5631C21.3506 12.0445 20.2761 9.37438 17.9742 8.59923C16.4432 8.08367 14.755 8.53647 13.5085 9.63841C12.262 8.53647 10.5738 8.08372 9.04277 8.59923C6.74081 9.37438 5.66639 12.0444 6.64296 14.5631C6.90853 15.248 7.97289 18.2576 9.40161 20.8868Z" fill="#FFF5D6"/>
<path d="M21.7481 24.6317H21.0677V23.2489C21.0677 22.7689 20.6786 22.3798 20.1986 22.3798H6.81821C6.33824 22.3798 5.94914 22.7689 5.94914 23.2489V24.6317H5.26875C4.85647 24.6317 4.52222 24.966 4.52222 25.3783C4.52222 25.7906 4.85647 26.1248 5.26875 26.1248H21.7481C22.1604 26.1248 22.4946 25.7906 22.4946 25.3783C22.4946 24.966 22.1604 24.6317 21.7481 24.6317Z" fill="#FFF5D6"/>
</svg>
